<?xml version="1.0" encoding="utf-8"?>
<!-- Generator: Adobe Illustrator 18.0.0, SVG Export Plug-In . SVG Version: 6.00 Build 0)  -->
<!DOCTYPE svg PUBLIC "-//W3C//DTD SVG 1.1//EN" "http://www.w3.org/Graphics/SVG/1.1/DTD/svg11.dtd">
<svg version="1.1" id="Layer_1" xmlns="http://www.w3.org/2000/svg" xmlns:xlink="http://www.w3.org/1999/xlink" x="0px" y="0px"
	 viewBox="0 0 270 73" enable-background="new 0 0 270 73" xml:space="preserve">
<g>
	<path fill="#31394B" d="M23.3,13.2c0,4.3-1.3,7.7-3.7,9.9s-6.1,3.5-10.7,3.5H1.4V0.4h8.3c4.3,0,7.7,1.1,10.1,3.5
		S23.3,9.2,23.3,13.2z M17.4,13.2c0-5.6-2.4-8.5-7.5-8.5H7v17.1h2.4C14.8,22,17.4,19.1,17.4,13.2z"/>
	<path fill="#31394B" d="M42.5,26.5H27.3V0.4h15.2v4.5h-9.6v5.9h8.8v4.5h-8.8V22h9.6C42.5,22,42.5,26.5,42.5,26.5z"/>
	<path fill="#31394B" d="M69.7,26.5h-7.2L51.1,6.8h-0.3c0.3,3.5,0.3,5.9,0.3,7.5v12.3H46V0.4h6.9l11.5,19.8h0.3
		c-0.3-3.5-0.3-5.9-0.3-7.2V0.7h5.1L69.7,26.5L69.7,26.5z"/>
	<path fill="#31394B" d="M86.6,26.5h-5.6V4.9h-7.2V0.4h19.8v4.5h-7.2L86.6,26.5L86.6,26.5z"/>
	<path fill="#31394B" d="M111.6,26.5l-1.9-6.1h-9.6l-1.9,6.1h-6.1l9.3-26.4h6.9l9.3,26.4C117.8,26.5,111.6,26.5,111.6,26.5z
		 M108.4,15.6c-1.9-5.6-2.7-8.8-2.9-9.6c-0.3-0.8-0.3-1.3-0.5-1.9c-0.5,1.6-1.6,5.3-3.5,11.5H108.4z"/>
	<path fill="#31394B" d="M121,26.5V0.4h5.6V22h10.7v4.5H121z"/>
	<path fill="#31394B" d="M175.2,13.5c0,4.5-1.1,7.7-3.2,10.1c-2.1,2.4-5.1,3.5-9.3,3.5c-4,0-7.2-1.3-9.3-3.5
		c-2.1-2.4-3.2-5.6-3.2-10.1s1.1-7.7,3.2-10.1c2.1-2.4,5.3-3.5,9.3-3.5c4,0,7.2,1.3,9.3,3.5C174.1,5.5,175.2,8.9,175.2,13.5z
		 M156,13.5c0,2.9,0.5,5.1,1.6,6.7s2.7,2.4,5.1,2.4c4.5,0,6.7-2.9,6.7-8.8s-2.4-8.8-6.7-8.8c-2.4,0-4,0.8-5.1,2.4
		C156.5,8.1,156,10.3,156,13.5z"/>
	<path fill="#31394B" d="M184.8,26.5h-5.6V0.4h15.2v4.5h-9.6v6.7h9.1v4.5h-9.1V26.5z"/>
	<path fill="#31394B" d="M204.8,26.5h-5.6V0.4h15.2v4.5h-9.6v6.7h9.1v4.5h-9.1V26.5z"/>
	<path fill="#31394B" d="M218.9,26.5V0.4h5.6v26.4L218.9,26.5L218.9,26.5z"/>
	<path fill="#31394B" d="M241.6,4.7c-2.1,0-3.7,0.8-4.8,2.4c-1.3,1.6-1.6,3.7-1.6,6.7c0,5.9,2.1,8.8,6.7,8.8c1.9,0,4-0.5,6.7-1.3
		v4.5c-2.1,0.8-4.5,1.3-7.2,1.3c-3.7,0-6.7-1.3-8.8-3.5c-2.1-2.4-2.9-5.6-2.9-10.1c0-2.7,0.5-5.1,1.6-7.2c1.1-1.9,2.4-3.7,4.3-4.8
		c1.9-1.1,4-1.6,6.7-1.6s5.1,0.5,7.7,1.9L248,6.3c-0.8-0.5-1.9-0.8-2.9-1.3C243.5,4.7,242.4,4.7,241.6,4.7z"/>
	<path fill="#31394B" d="M268.3,26.5h-15.2V0.4h15.2v4.5h-9.6v5.9h8.8v4.5h-8.8V22h9.6V26.5z"/>
</g>
<g>
	<path fill="#31394B" d="M133.3,38.3c0.8,0,1.6,0.3,2.1,0.8c0.5,0.5,0.8,1.3,0.8,2.4c0,1.1-0.3,1.9-0.5,2.9
		c-0.3,0.8-0.8,1.6-1.6,2.1c-0.5,0.5-1.3,0.8-2.4,0.8s-1.6-0.3-2.1-0.8s-0.8-1.3-0.8-2.4c0-1.1,0.3-1.9,0.5-2.9
		c0.5-0.8,0.8-1.6,1.6-1.9C131.7,38.6,132.5,38.3,133.3,38.3z M133.3,39.1c-0.5,0-1.3,0.3-1.9,0.5c-0.5,0.5-0.8,1.1-1.3,1.9
		c-0.3,0.8-0.5,1.6-0.5,2.4c0,1.9,0.8,2.7,2.4,2.7c0.5,0,1.3-0.3,1.9-0.5c0.5-0.5,0.8-1.1,1.3-1.9c0.3-0.8,0.5-1.6,0.5-2.7
		c0-0.8-0.3-1.3-0.5-1.9C134.3,39.1,134.1,39.1,133.3,39.1z"/>
	<path fill="#31394B" d="M135.9,50.8c-0.3,0-0.5,0-0.8-0.3V50c0.3,0,0.5,0,0.8,0c0.5,0,0.8-0.3,1.1-0.5c0.3-0.3,0.5-0.8,0.5-1.6
		l1.9-9.1h-1.6l0.3-0.5l1.6-0.3l0.3-1.3c0.3-0.8,0.5-1.6,0.8-1.9c0.5-0.5,1.1-0.5,1.9-0.5c0.5,0,0.8,0.3,1.3,0.3l-0.3,0.5
		c-0.5-0.3-0.8-0.3-1.3-0.3s-0.8,0.3-1.3,0.5c-0.3,0.3-0.5,0.8-0.5,1.3l-0.3,1.3h1.9l0.5,1.1h-1.9l-1.9,9.3
		c-0.3,0.8-0.5,1.6-0.8,1.9C137.5,50.6,136.5,50.8,135.9,50.8z"/>
</g>
<g>
	<path fill="#0C4E98" d="M181.6,65c0,2.4-0.5,4.3-1.9,5.6c-1.3,1.3-3.2,1.9-5.6,1.9h-4V58h4.5c2.4,0,4,0.5,5.1,1.9
		C180.8,61.2,181.6,62.8,181.6,65z M179.7,65c0-1.9-0.5-3.5-1.3-4.3s-2.4-1.3-4.3-1.3h-2.4v11.7h1.9c1.9,0,3.5-0.5,4.5-1.6
		C179.2,68.7,179.7,67.1,179.7,65z"/>
	<path fill="#0C4E98" d="M189.3,61.5c0.5,0,0.8,0,1.3,0.3v1.3c-0.5-0.3-0.8-0.3-1.3-0.3c-0.8,0-1.6,0.3-2.4,1.1
		c-0.8,0.8-0.8,1.6-0.8,2.7v5.9h-1.9V61.5h1.3l0.3,1.9h0.3c0.5-0.8,0.8-1.3,1.6-1.6C188,61.5,188.8,61.5,189.3,61.5z"/>
	<path fill="#0C4E98" d="M192.5,71.4c0-0.5,0.3-0.8,0.3-1.1c0.3-0.3,0.5-0.3,0.8-0.3c0.5,0,0.5,0.3,0.8,0.3c0.3,0.3,0.3,0.5,0.3,1.1
		s-0.3,0.8-0.3,1.1c-0.3,0.3-0.5,0.3-0.8,0.3c-0.3,0-0.5-0.3-0.8-0.3C192.5,72.2,192.5,71.9,192.5,71.4z"/>
	<path fill="#0C4E98" d="M212.8,62.3c0,1.6-0.5,2.7-1.6,3.5s-2.4,1.3-4.3,1.3h-1.6v5.6h-1.6V58.3h3.7
		C210.9,58,212.8,59.4,212.8,62.3z M205.3,65.5h1.6c1.6,0,2.7-0.3,3.2-0.8c0.5-0.5,1.1-1.3,1.1-2.4c0-0.8-0.3-1.6-0.8-2.1
		c-0.5-0.5-1.6-0.8-2.9-0.8h-1.9L205.3,65.5L205.3,65.5z"/>
	<path fill="#0C4E98" d="M222.4,72.5l-0.3-1.3h-0.3c-0.5,0.5-1.1,1.1-1.6,1.3s-1.3,0.3-1.9,0.3c-1.1,0-1.9-0.3-2.7-0.8
		c-0.5-0.5-0.8-1.3-0.8-2.4c0-2.1,1.9-3.5,5.3-3.5h1.9v-0.5c0-0.8-0.3-1.6-0.5-1.9c-0.3-0.5-0.8-0.5-1.9-0.5c-1.1,0-1.9,0.3-2.9,0.8
		l-0.3-1.3c0.5-0.3,1.1-0.5,1.9-0.5c0.5-0.3,1.3-0.3,1.9-0.3c1.3,0,2.4,0.3,2.9,0.8c0.5,0.5,0.8,1.6,0.8,2.7v7.5
		C223.8,72.5,222.4,72.5,222.4,72.5z M218.7,71.4c1.1,0,1.9-0.3,2.4-0.8c0.5-0.5,0.8-1.3,0.8-2.4v-0.8h-1.6c-1.3,0-2.4,0.3-2.9,0.5
		c-0.5,0.3-0.8,0.8-0.8,1.6c0,0.5,0.3,1.1,0.5,1.3C217.3,71.1,217.9,71.4,218.7,71.4z"/>
	<path fill="#0C4E98" d="M236,72.5l-1.9-6.4c-0.3-0.5-0.3-1.3-0.8-2.7h-0.3c-0.3,1.3-0.5,1.9-0.8,2.7l-1.9,6.4h-1.9l-2.9-10.7h1.6
		c0.8,2.7,1.3,4.8,1.6,6.1c0.3,1.3,0.5,2.4,0.5,2.9h0.3c0-0.3,0.3-0.8,0.3-1.6s0.3-1.1,0.5-1.3l1.9-6.1h1.9l1.9,6.1
		c0.3,1.1,0.5,2.1,0.8,2.9h0.3c0-0.3,0.3-0.5,0.3-1.1c0.3-0.5,0.8-3.2,2.1-8h1.6l-2.9,10.9L236,72.5L236,72.5z"/>
	<path fill="#0C4E98" d="M244.6,72.5H243V57h1.6V72.5z"/>
	<path fill="#0C4E98" d="M254.4,72.5l-0.3-1.3h-0.3c-0.5,0.5-1.1,1.1-1.6,1.3s-1.3,0.3-1.9,0.3c-1.1,0-1.9-0.3-2.7-0.8
		c-0.5-0.5-0.8-1.3-0.8-2.4c0-2.1,1.9-3.5,5.3-3.5h1.9v-0.5c0-0.8-0.3-1.6-0.5-1.9c-0.3-0.5-0.8-0.5-1.9-0.5c-1.1,0-1.9,0.3-2.9,0.8
		l-0.3-1.3c0.5-0.3,1.1-0.5,1.9-0.5c0.5-0.3,1.3-0.3,1.9-0.3c1.3,0,2.4,0.3,2.9,0.8c0.5,0.5,0.8,1.6,0.8,2.7v7.5
		C255.8,72.5,254.4,72.5,254.4,72.5z M251,71.4c1.1,0,1.9-0.3,2.4-0.8c0.5-0.5,0.8-1.3,0.8-2.4v-0.8h-1.6c-1.3,0-2.4,0.3-2.9,0.5
		c-0.5,0.3-0.8,0.8-0.8,1.6c0,0.5,0.3,1.1,0.5,1.3C249.9,71.1,250.2,71.4,251,71.4z"/>
	<path fill="#0C4E98" d="M260.9,66.8c0.3-0.5,0.8-0.8,1.3-1.6l3.5-3.7h1.9L263,66l4.8,6.1h-1.9l-3.7-5.1l-1.3,1.3v4h-1.6V57h1.6v8.3
		C260.9,65.5,260.9,66,260.9,66.8L260.9,66.8z"/>
	<path fill="#0C4E98" d="M150.3,69c0-0.8,0.3-1.6,0.5-2.1c0.3-0.5,1.3-1.3,2.4-1.9c-0.5-0.5-0.8-1.1-1.1-1.3
		c-0.3-0.3-0.3-0.5-0.5-0.8c-0.3-0.3-0.3-0.5-0.3-0.8c0-0.8,0.3-1.6,0.8-2.1c0.5-0.5,1.3-0.8,2.4-0.8c0.8,0,1.6,0.3,2.4,0.8
		c0.8,0.5,0.8,1.3,0.8,2.1c0,0.5-0.3,1.3-0.5,1.9c-0.5,0.5-1.1,1.1-1.9,1.6l3.7,3.5c0.3-0.3,0.5-0.8,0.8-1.3
		c0.3-0.5,0.3-1.1,0.5-1.6h1.6c-0.5,1.6-1.1,2.9-1.9,4l2.7,2.7h-2.1l-1.9-1.9c-0.8,0.5-1.3,1.1-2.1,1.3c-0.8,0.3-1.6,0.5-2.4,0.5
		c-1.3,0-2.4-0.3-2.9-0.8C150.6,71.1,150.3,70.3,150.3,69z M154.4,71.4c1.3,0,2.7-0.5,3.7-1.3l-4-3.7c-0.5,0.5-1.1,0.8-1.3,1.1
		c-0.3,0.3-0.5,0.5-0.5,0.8c-0.3,0.3-0.3,0.5-0.3,1.1c0,0.8,0.3,1.3,0.8,1.6C153.3,71.4,153.6,71.4,154.4,71.4z M153,61.8
		c0,0.5,0.3,0.8,0.3,1.3c0.3,0.3,0.5,0.8,1.1,1.3c0.8-0.5,1.3-0.8,1.6-1.3c0.3-0.3,0.5-0.8,0.5-1.3s-0.3-0.8-0.5-1.1
		c-0.3-0.3-0.5-0.3-1.1-0.3s-0.8,0.3-1.3,0.5C153,61.2,153,61.5,153,61.8z"/>
	<path fill="#0C4E98" d="M12.9,65c0,2.4-0.5,4.3-1.9,5.6s-3.2,1.9-5.6,1.9h-4V58h4.5c2.4,0,4,0.5,5.1,1.9
		C12.4,61.2,12.9,62.8,12.9,65z M11.3,65c0-1.9-0.5-3.5-1.3-4.3c-0.8-0.8-2.4-1.3-4.3-1.3H3v11.7h1.9c1.9,0,3.5-0.5,4.5-1.6
		C10.7,68.7,11.3,67.1,11.3,65z"/>
	<path fill="#0C4E98" d="M20.9,61.5c0.5,0,0.8,0,1.3,0.3v1.3c-0.5-0.3-0.8-0.3-1.3-0.3c-0.8,0-1.6,0.3-2.4,1.1
		c-0.5,0.8-0.8,1.6-0.8,2.7v5.9h-1.6V61.5h1.3l0.3,1.9H18c0.5-0.8,0.8-1.3,1.6-1.6C19.6,61.5,20.1,61.5,20.9,61.5z"/>
	<path fill="#0C4E98" d="M24.1,71.4c0-0.5,0.3-0.8,0.3-1.1c0.3-0.3,0.5-0.3,0.8-0.3c0.5,0,0.5,0.3,0.8,0.3c0.3,0.3,0.3,0.5,0.3,1.1
		S26,72.2,26,72.5c-0.3,0.3-0.5,0.3-0.8,0.3s-0.5-0.3-0.8-0.3C24.1,72.2,24.1,71.9,24.1,71.4z"/>
	<path fill="#0C4E98" d="M42.8,68.7c0,1.3-0.5,2.4-1.3,2.9c-0.8,0.8-2.1,1.1-3.7,1.1s-2.9-0.3-4-0.5v-1.6c0.5,0.3,1.3,0.5,1.9,0.5
		c0.8,0.3,1.3,0.3,2.1,0.3c1.1,0,1.9-0.3,2.7-0.5c0.5-0.5,0.8-1.1,0.8-1.9c0-0.5-0.3-0.8-0.3-1.3c-0.3-0.3-0.5-0.5-1.1-0.8
		c-0.5-0.3-1.3-0.5-2.1-0.8c-1.3-0.5-2.4-1.1-2.9-1.6c-0.5-0.5-0.8-1.6-0.8-2.7c0-1.1,0.5-1.9,1.3-2.7c0.8-0.5,1.9-1.1,3.5-1.1
		c1.3,0,2.7,0.3,4,0.8l-0.5,1.6c-1.3-0.5-2.4-0.8-3.5-0.8c-0.8,0-1.6,0.3-2.1,0.5c-0.5,0.5-0.8,0.8-0.8,1.6c0,0.5,0.3,0.8,0.3,1.3
		c0.3,0.3,0.5,0.5,0.8,0.8c0.5,0.3,1.1,0.5,1.9,0.8c1.6,0.5,2.7,1.1,3.2,1.6C42.5,66.8,42.8,67.7,42.8,68.7z"/>
	<path fill="#0C4E98" d="M49.2,71.4c0.3,0,0.5,0,0.8,0c0.3,0,0.5-0.3,0.5-0.3v1.3c-0.3,0.3-0.5,0.3-0.8,0.3c-0.3,0-0.5,0.3-0.8,0.3
		c-2.1,0-3.2-1.1-3.2-3.5v-6.4h-1.6v-0.8l1.6-0.5l0.8-2.4h0.8V62h3.2v1.1h-3.2v6.4c0,0.5,0.3,1.3,0.5,1.6
		C48.1,71.1,48.7,71.4,49.2,71.4z"/>
	<path fill="#0C4E98" d="M52.7,71.4c0-0.5,0.3-0.8,0.3-1.1c0.3-0.3,0.5-0.3,0.8-0.3c0.5,0,0.5,0.3,0.8,0.3c0.3,0.3,0.3,0.5,0.3,1.1
		s-0.3,0.8-0.3,1.1c-0.3,0.3-0.5,0.3-0.8,0.3c-0.3,0-0.5-0.3-0.8-0.3C52.7,72.2,52.7,71.9,52.7,71.4z"/>
	<path fill="#0C4E98" d="M69.7,65h4.8v6.9c-0.8,0.3-1.6,0.5-2.4,0.5c-0.8,0.3-1.6,0.3-2.7,0.3c-2.1,0-4-0.5-5.1-1.9
		c-1.3-1.3-1.9-3.2-1.9-5.6c0-1.6,0.3-2.9,0.8-4c0.5-1.1,1.6-1.9,2.7-2.7s2.4-0.8,4-0.8s2.9,0.3,4.3,0.8l-0.5,1.6
		c-1.3-0.5-2.7-0.8-3.7-0.8c-1.9,0-3.2,0.5-4,1.6c-1.1,1.1-1.6,2.4-1.6,4.5c0,1.9,0.5,3.5,1.3,4.5s2.4,1.6,4.3,1.6
		c1.1,0,1.9-0.3,2.9-0.3v-4.5h-3.2L69.7,65L69.7,65z"/>
	<path fill="#0C4E98" d="M82.6,72.7c-1.6,0-2.9-0.5-3.7-1.6c-0.8-0.8-1.3-2.4-1.3-4s0.5-3.2,1.3-4c0.8-1.1,1.9-1.6,3.5-1.6
		c1.3,0,2.4,0.5,3.2,1.3c0.8,0.8,1.3,2.1,1.3,3.5v1.1h-7.5c0,1.3,0.3,2.4,0.8,2.9c0.5,0.5,1.6,1.1,2.7,1.1c1.3,0,2.4-0.3,3.5-0.8
		v1.6c-0.5,0.3-1.1,0.5-1.6,0.5C83.9,72.5,83.1,72.7,82.6,72.7z M82,62.8c-0.8,0-1.6,0.3-2.1,0.8c-0.5,0.5-0.8,1.3-0.8,2.4h5.6
		c0-1.1-0.3-1.9-0.8-2.4C83.6,63.1,82.8,62.8,82,62.8z"/>
	<path fill="#0C4E98" d="M94.3,61.5c0.5,0,0.8,0,1.3,0.3v1.3c-0.5-0.3-0.8-0.3-1.3-0.3c-0.8,0-1.6,0.3-2.4,1.1
		c-0.5,0.8-0.8,1.6-0.8,2.7v5.9h-1.6V61.5h1.3l0.3,1.9h0.3c0.5-0.8,0.8-1.3,1.6-1.6C93,61.5,93.5,61.5,94.3,61.5z"/>
	<path fill="#0C4E98" d="M111.6,72.5v-7.2c0-0.8-0.3-1.6-0.5-1.9c-0.3-0.5-0.8-0.5-1.6-0.5c-1.1,0-1.9,0.3-2.4,0.8
		c-0.5,0.5-0.8,1.6-0.8,2.7v6.1h-1.6v-7.2c0-0.8-0.3-1.6-0.5-1.9c-0.3-0.5-0.8-0.5-1.6-0.5c-1.1,0-1.9,0.3-2.4,0.8
		c-0.5,0.5-0.8,1.6-0.8,2.9v5.6h-1.6V61.2h1.3l0.3,1.6h0.3c0.3-0.5,0.8-0.8,1.3-1.3c0.5-0.3,1.3-0.5,1.9-0.5c1.6,0,2.7,0.5,3.5,1.9
		h0.3c0.3-0.5,0.8-1.1,1.3-1.3c0.5-0.3,1.3-0.5,2.1-0.5c1.3,0,2.1,0.3,2.7,0.8s0.8,1.6,0.8,2.9v7.2h-1.9V72.5z"/>
	<path fill="#0C4E98" d="M123.1,72.5l-0.3-1.3h-0.3c-0.5,0.5-1.1,1.1-1.6,1.3c-0.5,0.3-1.3,0.3-1.9,0.3c-1.1,0-1.9-0.3-2.7-0.8
		c-0.5-0.5-0.8-1.3-0.8-2.4c0-2.1,1.9-3.5,5.3-3.5h1.9v-0.5c0-0.8-0.3-1.6-0.5-1.9c-0.3-0.5-0.8-0.5-1.9-0.5c-0.8,0-1.9,0.3-2.9,0.8
		l-0.5-1.3c0.5-0.3,1.1-0.5,1.9-0.5c0.5-0.3,1.3-0.3,1.9-0.3c1.3,0,2.4,0.3,2.9,0.8c0.5,0.5,0.8,1.6,0.8,2.7v7.5L123.1,72.5
		L123.1,72.5z M119.4,71.4c1.1,0,1.9-0.3,2.4-0.8s0.8-1.3,0.8-2.4v-0.8H121c-1.3,0-2.4,0.3-2.9,0.5c-0.5,0.3-0.8,0.8-0.8,1.6
		c0,0.5,0.3,1.1,0.5,1.3C118.3,71.1,118.9,71.4,119.4,71.4z"/>
	<path fill="#0C4E98" d="M127.7,58.6c0-0.3,0.3-0.5,0.3-0.8c0.3-0.3,0.5-0.3,0.8-0.3c0.3,0,0.5,0.3,0.5,0.3c0.3,0.3,0.3,0.5,0.3,0.8
		c0,0.3-0.3,0.5-0.3,0.8c-0.3,0.3-0.5,0.3-0.5,0.3c-0.3,0-0.5-0.3-0.8-0.3S127.7,59.1,127.7,58.6z M129.3,72.5h-1.6V61.5h1.6V72.5z"
		/>
	<path fill="#0C4E98" d="M140.5,72.5v-7.2c0-0.8-0.3-1.6-0.5-1.9c-0.5-0.5-1.1-0.5-1.9-0.5c-1.1,0-1.9,0.3-2.4,0.8
		c-0.5,0.5-0.8,1.6-0.8,2.9v5.6h-1.6V61.2h1.3l0.3,1.6h0c0.3-0.5,0.8-0.8,1.3-1.3c0.5-0.3,1.3-0.5,1.9-0.5c1.3,0,2.4,0.3,2.9,0.8
		c0.5,0.5,1.1,1.6,1.1,2.9v7.2h-1.6V72.5z"/>
</g>
<g id="XMLID_1_">
	<rect x="2.2" y="40.7" fill="#31394B" width="119" height="0.8"/>
</g>
<g id="XMLID_2_">
	<rect x="2.2" y="43.6" fill="#31394B" width="119" height="0.8"/>
</g>
<g id="XMLID_4_">
	<rect x="149.5" y="40.7" fill="#31394B" width="119" height="0.8"/>
</g>
<g id="XMLID_3_">
	<rect x="149.5" y="43.6" fill="#31394B" width="119" height="0.8"/>
</g>
</svg>
