<?xml version="1.0" encoding="utf-8"?>
<!-- Generator: Adobe Illustrator 18.0.0, SVG Export Plug-In . SVG Version: 6.00 Build 0)  -->
<!DOCTYPE svg PUBLIC "-//W3C//DTD SVG 1.1//EN" "http://www.w3.org/Graphics/SVG/1.1/DTD/svg11.dtd">
<svg version="1.1" id="Layer_1" xmlns="http://www.w3.org/2000/svg" xmlns:xlink="http://www.w3.org/1999/xlink" x="0px" y="0px"
	 viewBox="0 0 175 50" enable-background="new 0 0 175 50" xml:space="preserve">
<g>
	<path fill="#31394B" d="M14.3,9.7c0,2.8-0.8,5-2.4,6.5c-1.6,1.5-4,2.3-7,2.3H0V1.3h5.4c2.8,0,5,0.7,6.6,2.2S14.3,7.1,14.3,9.7z
		 M10.5,9.8c0-3.7-1.6-5.6-4.9-5.6H3.7v11.2h1.6C8.8,15.5,10.5,13.6,10.5,9.8z"/>
	<path fill="#31394B" d="M26.9,18.5h-9.9V1.3h9.9v3h-6.3v3.8h5.8v3h-5.8v4.4h6.3V18.5z"/>
	<path fill="#31394B" d="M44.8,18.5h-4.7L32.6,5.5h-0.1c0.1,2.3,0.2,3.9,0.2,4.9v8.1h-3.3V1.3h4.6l7.5,12.9h0.1
		c-0.1-2.2-0.2-3.8-0.2-4.8V1.3h3.3V18.5z"/>
	<path fill="#31394B" d="M55.8,18.5h-3.7V4.3h-4.7v-3h13v3h-4.7V18.5z"/>
	<path fill="#31394B" d="M72.3,18.5L71,14.4h-6.3l-1.3,4.1h-3.9l6.1-17.3h4.5l6.1,17.3H72.3z M70.1,11.3c-1.2-3.7-1.8-5.8-2-6.3
		s-0.2-0.9-0.3-1.2c-0.3,1-1,3.5-2.2,7.5H70.1z"/>
	<path fill="#31394B" d="M78.4,18.5V1.3H82v14.2h7v3H78.4z"/>
	<path fill="#31394B" d="M114,9.9c0,2.9-0.7,5.1-2.1,6.6c-1.4,1.5-3.4,2.3-6.1,2.3s-4.7-0.8-6.1-2.3c-1.4-1.5-2.1-3.7-2.1-6.6
		s0.7-5.1,2.1-6.6s3.5-2.3,6.1-2.3c2.7,0,4.7,0.8,6.1,2.3C113.3,4.8,114,7,114,9.9z M101.4,9.9c0,1.9,0.4,3.4,1.1,4.4
		s1.8,1.5,3.3,1.5c2.9,0,4.4-1.9,4.4-5.8c0-3.9-1.5-5.8-4.4-5.8c-1.5,0-2.6,0.5-3.3,1.5C101.7,6.5,101.4,7.9,101.4,9.9z"/>
	<path fill="#31394B" d="M120.2,18.5h-3.6V1.3h9.9v3h-6.3v4.4h5.9v3h-5.9V18.5z"/>
	<path fill="#31394B" d="M133.4,18.5h-3.6V1.3h9.9v3h-6.3v4.4h5.9v3h-5.9V18.5z"/>
	<path fill="#31394B" d="M142.6,18.5V1.3h3.7v17.3H142.6z"/>
	<path fill="#31394B" d="M157.5,4.1c-1.4,0-2.4,0.5-3.2,1.6s-1.1,2.5-1.1,4.3c0,3.8,1.4,5.8,4.3,5.8c1.2,0,2.7-0.3,4.4-0.9v3.1
		c-1.4,0.6-3,0.9-4.7,0.9c-2.5,0-4.4-0.8-5.8-2.3s-2-3.7-2-6.6c0-1.8,0.3-3.4,1-4.7s1.6-2.4,2.8-3.1s2.7-1.1,4.3-1.1
		c1.7,0,3.4,0.4,5.1,1.2l-1.2,3c-0.6-0.3-1.3-0.6-1.9-0.8C158.7,4.2,158.1,4.1,157.5,4.1z"/>
	<path fill="#31394B" d="M175,18.5h-9.9V1.3h9.9v3h-6.3v3.8h5.8v3h-5.8v4.4h6.3V18.5z"/>
</g>
<g>
	<path fill="#31394B" d="M86.4,26.2c0.6,0,1.1,0.2,1.4,0.6c0.3,0.4,0.5,0.9,0.5,1.6c0,0.7-0.1,1.3-0.4,1.9c-0.2,0.6-0.6,1-1,1.4
		c-0.4,0.3-0.9,0.5-1.5,0.5c-0.6,0-1.1-0.2-1.4-0.6c-0.3-0.4-0.5-0.9-0.5-1.6c0-0.7,0.1-1.3,0.4-1.9c0.3-0.6,0.6-1,1-1.3
		C85.4,26.4,85.9,26.2,86.4,26.2z M86.4,26.7c-0.4,0-0.8,0.1-1.2,0.4c-0.3,0.3-0.6,0.7-0.8,1.2c-0.2,0.5-0.3,1-0.3,1.6
		c0,1.2,0.5,1.8,1.5,1.8c0.4,0,0.8-0.1,1.2-0.4c0.3-0.3,0.6-0.7,0.8-1.2c0.2-0.5,0.3-1.1,0.3-1.7c0-0.5-0.1-0.9-0.4-1.2
		C87.2,26.8,86.9,26.7,86.4,26.7z"/>
	<path fill="#31394B" d="M88.2,34.5c-0.2,0-0.3,0-0.5-0.1V34C87.9,34,88,34,88.2,34c0.3,0,0.5-0.1,0.7-0.3c0.2-0.2,0.3-0.5,0.4-1
		l1.3-6h-1.1l0.1-0.3l1.1-0.1l0.2-0.8c0.1-0.6,0.3-1,0.6-1.3c0.3-0.3,0.7-0.4,1.2-0.4c0.3,0,0.5,0.1,0.9,0.2l-0.1,0.4
		c-0.3-0.1-0.6-0.1-0.8-0.1c-0.3,0-0.6,0.1-0.8,0.3c-0.2,0.2-0.3,0.5-0.4,0.9l-0.2,0.8h1.3l-0.1,0.4h-1.3l-1.3,6.2
		c-0.1,0.6-0.3,1-0.5,1.2S88.6,34.5,88.2,34.5z"/>
</g>
<g>
	<path fill="#0C4E98" d="M7.6,43.8c0,1.6-0.4,2.8-1.3,3.6c-0.9,0.8-2.1,1.2-3.7,1.2H0v-9.5h2.9c1.5,0,2.6,0.4,3.4,1.2
		C7.2,41.2,7.6,42.3,7.6,43.8z M6.4,43.8c0-1.2-0.3-2.2-0.9-2.8c-0.6-0.6-1.5-0.9-2.8-0.9H1.1v7.6h1.3c1.3,0,2.3-0.3,3-1
		C6.1,46.1,6.4,45.1,6.4,43.8z"/>
	<path fill="#0C4E98" d="M12.8,41.4c0.3,0,0.6,0,0.9,0.1l-0.1,1c-0.3-0.1-0.6-0.1-0.8-0.1c-0.6,0-1.1,0.2-1.5,0.7
		c-0.4,0.5-0.6,1.1-0.6,1.7v3.8H9.5v-7.1h0.9l0.1,1.3h0.1c0.3-0.5,0.6-0.8,1-1.1C11.9,41.5,12.4,41.4,12.8,41.4z"/>
	<path fill="#0C4E98" d="M14.8,48c0-0.3,0.1-0.5,0.2-0.7c0.1-0.1,0.3-0.2,0.6-0.2c0.3,0,0.4,0.1,0.6,0.2c0.1,0.2,0.2,0.4,0.2,0.7
		c0,0.3-0.1,0.5-0.2,0.7c-0.1,0.2-0.3,0.2-0.6,0.2c-0.2,0-0.4-0.1-0.5-0.2C14.9,48.5,14.8,48.3,14.8,48z"/>
	<path fill="#0C4E98" d="M28.2,41.9c0,1-0.3,1.7-1,2.2c-0.7,0.5-1.6,0.8-2.8,0.8h-1.1v3.7h-1.1v-9.5h2.5
		C27,39.1,28.2,40.1,28.2,41.9z M23.3,44h1c1,0,1.7-0.2,2.1-0.5c0.4-0.3,0.7-0.8,0.7-1.5c0-0.6-0.2-1.1-0.6-1.4
		c-0.4-0.3-1.1-0.5-1.9-0.5h-1.2V44z"/>
	<path fill="#0C4E98" d="M34.4,48.7l-0.2-1h-0.1c-0.4,0.4-0.7,0.7-1.1,0.9c-0.4,0.2-0.8,0.2-1.3,0.2c-0.7,0-1.3-0.2-1.7-0.5
		c-0.4-0.4-0.6-0.9-0.6-1.6c0-1.4,1.2-2.2,3.5-2.3l1.2,0v-0.4c0-0.6-0.1-1-0.4-1.2c-0.2-0.3-0.6-0.4-1.2-0.4c-0.6,0-1.3,0.2-2,0.5
		L30.3,42c0.4-0.2,0.7-0.3,1.2-0.4c0.4-0.1,0.8-0.2,1.3-0.2c0.8,0,1.5,0.2,1.9,0.6c0.4,0.4,0.6,1,0.6,1.8v4.9H34.4z M32,47.9
		c0.7,0,1.2-0.2,1.6-0.6c0.4-0.4,0.6-0.9,0.6-1.5v-0.6l-1.1,0c-0.9,0-1.5,0.2-1.9,0.4c-0.4,0.2-0.6,0.6-0.6,1.1
		c0,0.4,0.1,0.7,0.4,0.9C31.2,47.8,31.5,47.9,32,47.9z"/>
	<path fill="#0C4E98" d="M43.3,48.7l-1.3-4.2c-0.1-0.3-0.2-0.8-0.5-1.7h-0.1c-0.2,0.8-0.3,1.3-0.5,1.8l-1.3,4.2h-1.2l-1.9-7.1h1.1
		c0.5,1.8,0.8,3.2,1.1,4.1c0.2,0.9,0.4,1.6,0.4,1.9h0.1c0-0.2,0.1-0.6,0.2-1c0.1-0.4,0.2-0.7,0.3-0.9l1.3-4.1h1.2l1.3,4.1
		c0.2,0.7,0.4,1.4,0.5,1.9h0.1c0-0.2,0.1-0.4,0.1-0.7c0.1-0.3,0.5-2.1,1.4-5.3h1.1l-2,7.1H43.3z"/>
	<path fill="#0C4E98" d="M48.9,48.7h-1.1V38.5h1.1V48.7z"/>
	<path fill="#0C4E98" d="M55.5,48.7l-0.2-1h-0.1c-0.4,0.4-0.7,0.7-1.1,0.9c-0.4,0.2-0.8,0.2-1.3,0.2c-0.7,0-1.3-0.2-1.7-0.5
		c-0.4-0.4-0.6-0.9-0.6-1.6c0-1.4,1.2-2.2,3.5-2.3l1.2,0v-0.4c0-0.6-0.1-1-0.4-1.2c-0.2-0.3-0.6-0.4-1.2-0.4c-0.6,0-1.3,0.2-2,0.5
		L51.4,42c0.4-0.2,0.7-0.3,1.2-0.4c0.4-0.1,0.8-0.2,1.3-0.2c0.8,0,1.5,0.2,1.9,0.6c0.4,0.4,0.6,1,0.6,1.8v4.9H55.5z M53.1,47.9
		c0.7,0,1.2-0.2,1.6-0.6c0.4-0.4,0.6-0.9,0.6-1.5v-0.6l-1.1,0c-0.9,0-1.5,0.2-1.9,0.4c-0.4,0.2-0.6,0.6-0.6,1.1
		c0,0.4,0.1,0.7,0.4,0.9C52.4,47.8,52.7,47.9,53.1,47.9z"/>
	<path fill="#0C4E98" d="M59.6,45c0.2-0.3,0.5-0.6,0.9-1l2.3-2.4h1.3l-2.9,3l3.1,4.1H63l-2.5-3.4L59.6,46v2.7h-1.1V38.5h1.1v5.4
		C59.6,44.1,59.6,44.5,59.6,45L59.6,45z"/>
	<path fill="#0C4E98" d="M68.5,46.4c0-0.5,0.1-1,0.4-1.4c0.3-0.4,0.8-0.8,1.5-1.2c-0.3-0.4-0.6-0.7-0.7-0.8
		c-0.1-0.2-0.2-0.4-0.3-0.6c-0.1-0.2-0.1-0.4-0.1-0.6c0-0.6,0.2-1.1,0.6-1.4c0.4-0.3,0.9-0.5,1.6-0.5c0.6,0,1.1,0.2,1.5,0.5
		s0.5,0.8,0.5,1.4c0,0.4-0.1,0.8-0.4,1.2s-0.7,0.7-1.3,1.1l2.4,2.3c0.2-0.2,0.4-0.5,0.5-0.9c0.1-0.3,0.2-0.7,0.3-1.1h1
		c-0.3,1.1-0.7,2-1.2,2.6l1.8,1.7h-1.4l-1.1-1.1c-0.5,0.4-0.9,0.7-1.4,0.9c-0.5,0.2-1,0.3-1.6,0.3c-0.8,0-1.5-0.2-2-0.6
		C68.8,47.7,68.5,47.2,68.5,46.4z M71.2,47.9c0.9,0,1.7-0.3,2.4-0.9L71,44.5c-0.4,0.3-0.7,0.5-0.9,0.7c-0.2,0.2-0.3,0.4-0.4,0.6
		c-0.1,0.2-0.1,0.4-0.1,0.7c0,0.5,0.2,0.8,0.5,1.1S70.7,47.9,71.2,47.9z M70.3,41.7c0,0.3,0.1,0.5,0.2,0.8c0.1,0.2,0.4,0.5,0.7,0.9
		c0.5-0.3,0.9-0.6,1.1-0.8s0.3-0.5,0.3-0.9c0-0.3-0.1-0.5-0.3-0.7c-0.2-0.2-0.5-0.3-0.8-0.3c-0.4,0-0.6,0.1-0.9,0.3
		S70.3,41.4,70.3,41.7z"/>
	<path fill="#0C4E98" d="M90.5,43.8c0,1.6-0.4,2.8-1.3,3.6c-0.9,0.8-2.1,1.2-3.7,1.2h-2.6v-9.5h2.9c1.5,0,2.6,0.4,3.4,1.2
		C90,41.2,90.5,42.3,90.5,43.8z M89.3,43.8c0-1.2-0.3-2.2-0.9-2.8c-0.6-0.6-1.5-0.9-2.8-0.9H84v7.6h1.3c1.3,0,2.3-0.3,3-1
		C89,46.1,89.3,45.1,89.3,43.8z"/>
	<path fill="#0C4E98" d="M95.7,41.4c0.3,0,0.6,0,0.9,0.1l-0.1,1c-0.3-0.1-0.6-0.1-0.8-0.1c-0.6,0-1.1,0.2-1.5,0.7
		c-0.4,0.5-0.6,1.1-0.6,1.7v3.8h-1.1v-7.1h0.9l0.1,1.3h0.1c0.3-0.5,0.6-0.8,1-1.1C94.8,41.5,95.2,41.4,95.7,41.4z"/>
	<path fill="#0C4E98" d="M97.7,48c0-0.3,0.1-0.5,0.2-0.7c0.1-0.1,0.3-0.2,0.6-0.2c0.3,0,0.4,0.1,0.6,0.2c0.1,0.2,0.2,0.4,0.2,0.7
		c0,0.3-0.1,0.5-0.2,0.7c-0.1,0.2-0.3,0.2-0.6,0.2c-0.2,0-0.4-0.1-0.5-0.2C97.8,48.5,97.7,48.3,97.7,48z"/>
	<path fill="#0C4E98" d="M110.1,46.1c0,0.8-0.3,1.5-0.9,2c-0.6,0.5-1.4,0.7-2.5,0.7c-1.1,0-2-0.1-2.6-0.4v-1.1
		c0.4,0.2,0.8,0.3,1.3,0.4c0.5,0.1,0.9,0.1,1.4,0.1c0.7,0,1.3-0.1,1.7-0.4s0.6-0.7,0.6-1.2c0-0.3-0.1-0.6-0.2-0.8
		c-0.1-0.2-0.4-0.4-0.7-0.6c-0.3-0.2-0.8-0.4-1.4-0.6c-0.9-0.3-1.5-0.7-1.9-1.1c-0.4-0.4-0.6-1-0.6-1.7c0-0.7,0.3-1.3,0.8-1.7
		c0.6-0.4,1.3-0.7,2.2-0.7c0.9,0,1.8,0.2,2.6,0.5l-0.3,1c-0.8-0.3-1.5-0.5-2.3-0.5c-0.6,0-1,0.1-1.4,0.4c-0.3,0.3-0.5,0.6-0.5,1
		c0,0.3,0.1,0.6,0.2,0.8c0.1,0.2,0.3,0.4,0.6,0.6c0.3,0.2,0.7,0.4,1.3,0.6c1,0.4,1.7,0.7,2.1,1.1C109.9,44.9,110.1,45.5,110.1,46.1z
		"/>
	<path fill="#0C4E98" d="M114.2,47.9c0.2,0,0.4,0,0.6,0s0.3-0.1,0.4-0.1v0.8c-0.1,0.1-0.3,0.1-0.5,0.1c-0.2,0-0.4,0.1-0.6,0.1
		c-1.4,0-2.1-0.7-2.1-2.2v-4.2h-1v-0.5l1-0.4l0.5-1.5h0.6v1.7h2.1v0.8h-2.1v4.2c0,0.4,0.1,0.8,0.3,1
		C113.6,47.8,113.9,47.9,114.2,47.9z"/>
	<path fill="#0C4E98" d="M116.5,48c0-0.3,0.1-0.5,0.2-0.7c0.1-0.1,0.3-0.2,0.6-0.2c0.3,0,0.4,0.1,0.6,0.2c0.1,0.2,0.2,0.4,0.2,0.7
		c0,0.3-0.1,0.5-0.2,0.7c-0.1,0.2-0.3,0.2-0.6,0.2c-0.2,0-0.4-0.1-0.5-0.2C116.5,48.5,116.5,48.3,116.5,48z"/>
	<path fill="#0C4E98" d="M127.7,43.7h3.2v4.6c-0.5,0.2-1,0.3-1.5,0.4c-0.5,0.1-1.1,0.1-1.8,0.1c-1.4,0-2.6-0.4-3.4-1.3
		c-0.8-0.9-1.2-2.1-1.2-3.6c0-1,0.2-1.9,0.6-2.6c0.4-0.7,1-1.3,1.7-1.7c0.7-0.4,1.6-0.6,2.6-0.6c1,0,2,0.2,2.8,0.6l-0.4,1
		c-0.9-0.4-1.7-0.5-2.5-0.5c-1.2,0-2.1,0.3-2.7,1c-0.7,0.7-1,1.6-1,2.9c0,1.3,0.3,2.3,0.9,2.9c0.6,0.7,1.5,1,2.8,1
		c0.7,0,1.3-0.1,1.9-0.2v-2.9h-2.1V43.7z"/>
	<path fill="#0C4E98" d="M136.1,48.8c-1.1,0-1.9-0.3-2.5-1c-0.6-0.6-0.9-1.5-0.9-2.7c0-1.1,0.3-2.1,0.8-2.7c0.6-0.7,1.3-1,2.3-1
		c0.9,0,1.6,0.3,2.1,0.9c0.5,0.6,0.8,1.4,0.8,2.3v0.7h-4.9c0,0.8,0.2,1.5,0.6,1.9s1,0.7,1.7,0.7c0.8,0,1.5-0.2,2.3-0.5v1
		c-0.4,0.2-0.7,0.3-1.1,0.4C137,48.7,136.5,48.8,136.1,48.8z M135.8,42.3c-0.6,0-1,0.2-1.4,0.6c-0.3,0.4-0.5,0.9-0.6,1.5h3.7
		c0-0.7-0.2-1.2-0.5-1.6C136.8,42.5,136.3,42.3,135.8,42.3z"/>
	<path fill="#0C4E98" d="M143.8,41.4c0.3,0,0.6,0,0.9,0.1l-0.1,1c-0.3-0.1-0.6-0.1-0.8-0.1c-0.6,0-1.1,0.2-1.5,0.7
		c-0.4,0.5-0.6,1.1-0.6,1.7v3.8h-1.1v-7.1h0.9l0.1,1.3h0.1c0.3-0.5,0.6-0.8,1-1.1C142.9,41.5,143.3,41.4,143.8,41.4z"/>
	<path fill="#0C4E98" d="M155.1,48.7V44c0-0.6-0.1-1-0.4-1.3c-0.2-0.3-0.6-0.4-1.1-0.4c-0.7,0-1.2,0.2-1.5,0.6
		c-0.3,0.4-0.5,1-0.5,1.8v4h-1.1V44c0-0.6-0.1-1-0.4-1.3c-0.2-0.3-0.6-0.4-1.1-0.4c-0.7,0-1.2,0.2-1.5,0.6c-0.3,0.4-0.5,1.1-0.5,2
		v3.7H146v-7.1h0.9l0.2,1h0.1c0.2-0.3,0.5-0.6,0.9-0.8c0.4-0.2,0.8-0.3,1.2-0.3c1.1,0,1.8,0.4,2.2,1.2h0.1c0.2-0.4,0.5-0.7,0.9-0.9
		c0.4-0.2,0.9-0.3,1.4-0.3c0.8,0,1.4,0.2,1.8,0.6c0.4,0.4,0.6,1.1,0.6,2v4.7H155.1z"/>
	<path fill="#0C4E98" d="M162.7,48.7l-0.2-1h-0.1c-0.4,0.4-0.7,0.7-1.1,0.9c-0.4,0.2-0.8,0.2-1.3,0.2c-0.7,0-1.3-0.2-1.7-0.5
		c-0.4-0.4-0.6-0.9-0.6-1.6c0-1.4,1.2-2.2,3.5-2.3l1.2,0v-0.4c0-0.6-0.1-1-0.4-1.2c-0.2-0.3-0.6-0.4-1.2-0.4c-0.6,0-1.3,0.2-2,0.5
		l-0.3-0.8c0.4-0.2,0.7-0.3,1.2-0.4c0.4-0.1,0.8-0.2,1.3-0.2c0.8,0,1.5,0.2,1.9,0.6c0.4,0.4,0.6,1,0.6,1.8v4.9H162.7z M160.3,47.9
		c0.7,0,1.2-0.2,1.6-0.6c0.4-0.4,0.6-0.9,0.6-1.5v-0.6l-1.1,0c-0.9,0-1.5,0.2-1.9,0.4c-0.4,0.2-0.6,0.6-0.6,1.1
		c0,0.4,0.1,0.7,0.4,0.9C159.5,47.8,159.9,47.9,160.3,47.9z"/>
	<path fill="#0C4E98" d="M165.7,39.6c0-0.2,0.1-0.4,0.2-0.5c0.1-0.1,0.3-0.2,0.5-0.2c0.2,0,0.3,0.1,0.4,0.2c0.1,0.1,0.2,0.3,0.2,0.5
		c0,0.2-0.1,0.4-0.2,0.5c-0.1,0.1-0.3,0.2-0.4,0.2c-0.2,0-0.3-0.1-0.5-0.2C165.7,40,165.7,39.8,165.7,39.6z M166.8,48.7h-1.1v-7.1
		h1.1V48.7z"/>
	<path fill="#0C4E98" d="M174,48.7V44c0-0.6-0.1-1-0.4-1.3c-0.3-0.3-0.7-0.4-1.2-0.4c-0.7,0-1.3,0.2-1.6,0.6c-0.3,0.4-0.5,1.1-0.5,2
		v3.7h-1.1v-7.1h0.9l0.2,1h0.1c0.2-0.4,0.5-0.6,0.9-0.8c0.4-0.2,0.8-0.3,1.3-0.3c0.9,0,1.5,0.2,1.9,0.6c0.4,0.4,0.7,1.1,0.7,2v4.7
		H174z"/>
</g>
<g id="XMLID_1_">
	<rect x="0.6" y="27.8" fill="#31394B" width="78.1" height="0.5"/>
</g>
<g id="XMLID_2_">
	<rect x="0.6" y="29.7" fill="#31394B" width="78.1" height="0.5"/>
</g>
<g id="XMLID_4_">
	<rect x="97.1" y="27.8" fill="#31394B" width="78.1" height="0.5"/>
</g>
<g id="XMLID_3_">
	<rect x="97.1" y="29.7" fill="#31394B" width="78.1" height="0.5"/>
</g>
</svg>
